<?xml version="1.0" encoding="UTF-8"?>
<svg width="800px" height="400px" viewBox="0 0 800 400" version="1.1" xmlns="http://www.w3.org/2000/svg" xmlns:xlink="http://www.w3.org/1999/xlink">
    <title>f2</title>
    <defs>
        <polygon id="path-1" points="0.000217518579 0.723370909 86.2148727 0.723370909 86.2148727 87.3484214 0.000217518579 87.3484214"></polygon>
    </defs>
    <g id="f2" stroke="none" stroke-width="1" fill="none" fill-rule="evenodd">
        <g id="Group-2" transform="translate(79.000000, 131.000000)">
            <g id="Group-8" transform="translate(0.000000, 0.000000)">
                <g id="Group-3" transform="translate(0.000000, 23.870487)">
                    <mask id="mask-2" fill="white">
                        <use xlink:href="#path-1"></use>
                    </mask>
                    <g id="Clip-2"></g>
                    <path d="M15.0224291,0.723370909 C17.2906473,2.60518909 19.6793018,4.28628 21.7166836,6.32115273 C41.7693382,26.3487164 61.5434836,46.6623164 81.89472,66.3762436 C88.6090473,72.8823164 86.8025018,76.8542073 81.2197745,82.7028982 C75.0850473,89.1261709 70.8170836,88.6971164 64.8805745,82.5975164 C45.1114473,62.2939527 24.9032291,42.4169345 4.99610182,22.2463527 C2.62501091,19.8426436 -2.10964364,17.4966436 1.05682909,13.0956982 C4.64482909,8.11264364 8.62424727,3.19231636 15.0224291,0.723370909" id="Fill-1" fill="#000000" mask="url(#mask-2)"></path>
                </g>
                <path d="M73.5487309,34.0042036 C70.9718945,40.0360582 66.5207673,43.9828582 61.71084,47.1267491 C57.5256764,49.8666764 54.9237491,45.6212945 52.3418945,43.09464 C45.7655673,36.66384 39.2670218,30.1527491 32.8236764,23.5914764 C24.3529855,14.9652218 26.4204764,5.29518545 37.4654945,0.578094545 C39.8114945,-0.425541818 41.5502945,-0.109396364 43.0984036,1.42114909 C52.6103673,10.8277309 62.0796764,20.2769673 71.45364,29.8215491 C72.5250218,30.9130036 72.9089127,32.6819127 73.5487309,34.0042036" id="Fill-4" fill="#000000"></path>
                <path d="M26.9087455,89.7150545 C30.3010364,89.4591273 32.0599091,91.2832364 33.8238,93.0421091 C41.7600545,100.955782 49.5783818,108.997418 57.6375818,116.785636 C64.5024545,123.424691 59.3638364,127.441745 55.0206,132.219055 C50.2156909,137.508218 46.1032909,138.782836 40.6911818,132.891491 C33.6757636,125.253818 26.0932909,118.138036 18.7993636,110.756291 C16.1924182,108.119236 12.5065636,105.243818 14.9278364,101.246836 C17.8960909,96.3440727 21.9357273,92.0535273 26.9087455,89.7150545" id="Fill-6" fill="#000000"></path>
            </g>
            <text id="spot-layer" font-family="AvenirNext-Medium, Avenir Next" font-size="82" font-weight="400" letter-spacing="2.64516129" fill="#000000">
                <tspan x="115" y="95">SPOT </tspan>
                <tspan x="356.021806" y="95" font-family="AvenirNext-Heavy, Avenir Next" font-weight="600">LAYER</tspan>
            </text>
        </g>
    </g>
</svg>